<?xml version="1.0" encoding="UTF-8"?>
<svg id="Layer_1" data-name="Layer 1" xmlns="http://www.w3.org/2000/svg" version="1.1" viewBox="0 0 69 26">
  <defs>
    <style>
      .cls-1 {
        fill: #e1242b;
      }

      .cls-1, .cls-2, .cls-3 {
        stroke-width: 0px;
      }

      .cls-2 {
        fill: #e1232a;
      }

      .cls-3 {
        fill: #fff;
      }
    </style>
  </defs>
  <path class="cls-3" d="M61.62,18.95c.1-.11.2-.25.29-.42.15-.31.33-.68.55-1.01.23-.36.3-.72.22-1.07-.13-.53-.58-.78-.72-.87-.98-.55-2.09-.82-3.39-.82h-.2c-1.09.02-1.99.29-2.76.82-.21.15-.38.31-.55.49-.03-.35-.18-.59-.32-.72-.21-.21-.5-.33-.82-.33h-.1c-.5.04-1.16.14-1.75.53-.01-.02-.03-.03-.04-.05-.23-.23-.53-.35-.9-.35-.41,0-.79,0-1.18,0-.34,0-.69,0-1.03-.01h0c-.42,0-.72.12-.95.35-.35.35-.35.8-.34.94,0,.42,0,.83,0,1.25-.54-1.26-1.37-2.09-2.53-2.51-.69-.25-1.38-.38-2.05-.38-.76,0-1.5.16-2.2.48-.4.18-.76.41-1.08.66l.87-1.02h-2.95s-.74,0-.74,0c-.43,0-.86,0-1.28,0h0c-.52,0-.93.21-1.25.61-.17.21-.33.43-.5.64,0-.98,0-1.95,0-2.93,0-.24-.06-.45-.15-.63,1.11-.59,1.97-1.53,2.44-2.67,0,0,0,.02,0,.03.78,2.15,2.91,3.59,5.29,3.59,1.27,0,2.46-.4,3.45-1.16.68-.52,1.22-1.19,1.58-1.93,0,.43,0,.86,0,1.3,0,.38.11.69.34.93.23.23.53.35.9.35.32,0,.61,0,.89,0h.55s.56,0,.56,0c1.05,0,1.5-.44,1.5-1.48v-1.21c0-1.01,0-2.03,0-3.04,0-.19.02-.2.12-.24.07-.03.14-.05.2-.05.09,0,.17.03.23.09.07.08.11.19.11.33,0,.8,0,1.61,0,2.41,0,.65,0,1.31,0,1.96,0,.36.11.66.34.89.23.23.53.34.89.34.41,0,.8,0,1.19,0,.35,0,.7,0,1.05,0h0c.43,0,.74-.12.97-.36.24-.24.35-.56.35-.95-.01-.85,0-1.7,0-2.54.01-1.03.02-2.09,0-3.15-.02-.94-.38-1.74-1.07-2.38-.7-.64-1.63-1-2.61-1-.74,0-1.45.2-2.05.56-.02-.03-.05-.06-.07-.08-.16-.17-.45-.37-.93-.37-.4,0-.77.01-1.14.01-.34,0-.67,0-1.01-.01h0c-.42,0-.72.12-.95.35-.35.35-.34.8-.34.95,0,.65,0,1.3,0,1.95-.26-.53-.61-1.03-1.06-1.48-1.03-1.03-2.49-1.62-4.01-1.62h0c-1.01,0-2,.26-2.84.76-1.1.65-1.88,1.53-2.32,2.6-.22-.61-.55-1.18-.99-1.69-1.06-1.22-2.62-1.92-4.28-1.92h0c-.84,0-1.66.18-2.42.54-1.38.65-2.33,1.65-2.8,2.89,0-1.48,0-2.96,0-4.44,0-.37-.12-.68-.35-.91-.35-.35-.77-.35-.91-.35-.44,0-.85,0-1.26,0s-.82,0-1.23,0h0c-.38,0-.89.12-1.24.68-.59.95-1.18,1.89-1.78,2.83-.56-.94-1.11-1.87-1.67-2.81-.34-.58-.84-.7-1.2-.7h-.02c-.43,0-.86,0-1.29,0s-.84,0-1.27,0h0c-.38,0-.68.11-.9.34-.34.34-.34.76-.34.9,0,3.45,0,6.9,0,10.35,0,.37.11.67.34.9.34.34.76.34.9.34h.25c.24,0,.48,0,.72,0-.01.02-.03.03-.05.06-.59.95-1.18,1.89-1.78,2.83-.56-.94-1.11-1.87-1.67-2.81-.34-.58-.84-.7-1.2-.7h-.02c-.43,0-.86,0-1.29,0s-.84,0-1.27,0h0c-.38,0-.68.11-.9.34-.34.34-.34.76-.34.9,0,3.45,0,6.9,0,10.35,0,.37.11.67.34.9.34.34.76.34.9.34h.25c.3,0,.6,0,.9,0s.58,0,.88.01h.08c.4,0,.73-.12.97-.37.37-.37.37-.86.36-1.01,0-.95-.01-1.9-.01-2.85l.2.3.64.96.31.46.85,1.28.82-1.3.55-.88.58-.92c0,1,0,2.01,0,3.01,0,.15,0,.6.35.96.23.24.55.35.93.35h.05c.34,0,.69-.01,1.03-.01.39,0,.79,0,1.18,0h0c.39,0,.69-.12.92-.34.23-.23.35-.53.34-.91,0-.11,0-.23,0-.34.17.3.38.56.58.76.7.68,1.73,1.09,2.77,1.09.7,0,1.36-.18,1.97-.52.22.18.49.27.82.27h.07c.37,0,.73,0,1.1,0,.31,0,.63,0,.94.01h.01s.05,0,.05,0c.4,0,.72-.12.96-.37.23-.24.34-.55.35-.94,0,.19.06.5.33.77.15.15.42.33.85.33.4,0,.78,0,1.16,0,.41,0,.82,0,1.23,0,.44,0,.72-.19.87-.34.15-.16.33-.44.32-.88,0-.09,0-.19,0-.28,0-.1,0-.21,0-.33l.7,1.15c.32.59.82.68,1.08.68.47,0,.94,0,1.4,0h.69s.69,0,.69,0h.93l.07-.92s0-.04,0-.06c.18.15.38.3.59.43.89.56,1.88.85,2.96.85.6,0,1.24-.09,1.9-.27.92-.25,1.72-.71,2.35-1.38.08-.08.25-.28.35-.55,0,.27,0,.55,0,.82,0,.4.11.72.35.96.23.24.55.36.94.36h.05c.36,0,.72-.01,1.08-.01s.69,0,1.03.01h.01s.04,0,.04,0c.48,0,.77-.2.93-.37.35-.37.33-.83.33-.98-.04-1.03-.05-1.92,0-2.74.03-.67.38-1.14.98-1.33.17-.05.36-.08.61-.09.16-.01.3-.06.42-.11.17.4.41.76.73,1.06-.13.1-.26.25-.37.46-.23.44-.43.78-.63,1.08-.43.66-.29,1.37.36,1.82,1.12.77,2.43,1.16,4.03,1.19h.04s.04,0,.04,0h.13c.37-.03.78-.05,1.21-.13,1.59-.3,2.56-1.16,2.88-2.53.11-.49.12-.96.11-1.32-.02-1.05-.47-1.89-1.3-2.46ZM38.48,17.44c-.41.76-.65,1.67-.7,2.72-.01.27,0,.53.02.79-.31-.53-.63-1.07-.94-1.6.2-.22.38-.45.57-.67l.3-.35.74-.88ZM26.2,15.2c-.67-.2-1.37-.3-2.08-.3-1.05,0-2.17.21-3.51.66-.31.1-.56.31-.69.59-.14.29-.15.61-.03.95l.05.15c.16.45.32.91.47,1.37.06.17.13.32.23.43-.48.29-.85.7-1.11,1.2,0-2.15,0-4.29,0-6.44,0-.37-.12-.68-.35-.91-.35-.35-.77-.35-.91-.35-.44,0-.85,0-1.26,0-.04,0-.08,0-.12,0,.17-.31.17-.62.17-.75,0-.95-.01-1.9-.01-2.85l.2.3.64.96.31.46.85,1.28.82-1.3.55-.88.58-.92c0,1,0,2.01,0,3.01,0,.15,0,.6.35.96.23.24.55.35.93.35h.05c.34,0,.69-.01,1.03-.01.39,0,.79,0,1.18,0h0c.39,0,.69-.12.92-.34.23-.23.35-.53.34-.91,0-.7,0-1.4,0-2.09.56,1.46,1.77,2.58,3.35,3.1-.02.13-.03.24-.03.3,0,1.87,0,3.74,0,5.61,0-.44-.06-.94-.27-1.44-.47-1.09-1.34-1.81-2.68-2.22ZM47.14,21.89c.19-.03.34-.1.48-.19,0,.28,0,.55,0,.83-.07-.2-.2-.43-.48-.63Z"/>
  <g>
    <path class="cls-1" d="M18.98,10.1c-.19-.29-.38-.58-.58-.86-.69-1.03-1.37-2.06-2.06-3.08-.05-.08-.08-.21-.21-.18-.15.04-.11.17-.11.27,0,1.89,0,3.77,0,5.66,0,.24-.06.3-.3.29-.72-.02-1.44-.01-2.16,0-.18,0-.24-.05-.24-.23,0-3.45,0-6.9,0-10.35,0-.2.06-.25.26-.25.85.01,1.7,0,2.55,0,.17,0,.27.06.35.2.73,1.25,1.47,2.49,2.21,3.73.24.4.36.4.62,0,.78-1.23,1.56-2.46,2.32-3.7.12-.19.24-.25.45-.24.81.01,1.62.01,2.43,0,.19,0,.28.03.28.25,0,3.44,0,6.88,0,10.32,0,.22-.08.26-.28.25-.76-.01-1.52-.01-2.28,0-.23,0-.28-.06-.28-.28,0-1.9,0-3.79,0-5.69,0-.07,0-.14,0-.21,0-.1.04-.23-.08-.26-.14-.05-.18.1-.23.18-.83,1.3-1.65,2.61-2.48,3.91-.05.08-.08.18-.2.24Z"/>
    <path class="cls-2" d="M12.73,22.32c-.33-.49-.64-.96-.95-1.42-.55-.82-1.09-1.64-1.65-2.46-.07-.11-.11-.31-.28-.26-.19.06-.1.26-.1.39,0,1.82-.01,3.63,0,5.45,0,.32-.09.38-.38.37-.68-.02-1.36-.01-2.04,0-.17,0-.26-.02-.26-.24,0-3.45,0-6.9,0-10.35,0-.18.04-.24.23-.24.86.01,1.72.01,2.58,0,.18,0,.26.07.35.21.72,1.23,1.45,2.45,2.18,3.68.27.45.38.46.65.02.78-1.23,1.55-2.46,2.32-3.7.1-.15.19-.22.38-.21.83.01,1.66,0,2.49,0,.19,0,.28.03.28.25,0,3.44,0,6.88,0,10.32,0,.21-.07.25-.26.25-.75,0-1.5-.01-2.25,0-.25,0-.32-.05-.32-.31.01-1.9,0-3.81,0-5.71,0-.06,0-.12,0-.18,0-.09.03-.21-.11-.25-.12-.03-.15.08-.19.15-.22.35-.45.71-.67,1.06-.66,1.04-1.32,2.09-2.01,3.17Z"/>
    <path class="cls-2" d="M38.46,15.91c-.53.62-1.01,1.19-1.49,1.76-.35.42-.7.85-1.07,1.25-.2.22-.22.4-.06.66.85,1.42,1.68,2.85,2.51,4.27.05.09.14.17.13.32-.93,0-1.85,0-2.78,0-.14,0-.18-.11-.23-.2-.47-.77-.93-1.53-1.4-2.3-.22-.36-.32-.35-.63-.05-.42.41-.62.87-.54,1.46.04.29,0,.6,0,.9,0,.14-.04.19-.18.19-.8,0-1.6,0-2.4,0-.18,0-.18-.09-.18-.22,0-.65,0-1.3,0-1.94,0-2.92,0-5.84,0-8.77,0-.26.05-.34.32-.33.71.02,1.42.02,2.13,0,.24,0,.32.05.32.31-.01,1.69,0,3.37,0,5.06,0,.06,0,.12,0,.18,0,.1-.02.21.1.26.14.06.2-.05.27-.14.64-.81,1.29-1.63,1.92-2.44.12-.15.24-.23.44-.23.92.01,1.83,0,2.83,0Z"/>
    <path class="cls-2" d="M47.54,7.85c0-1.28,0-2.55,0-3.83,0-.21.03-.29.27-.29.72.02,1.44.01,2.16,0,.2,0,.27.05.25.25-.02.21,0,.42,0,.63,0,.12.03.22.15.26.13.05.23,0,.32-.1.03-.04.06-.08.1-.12,1.01-1.24,2.99-1.39,4.18-.3.48.44.73,1,.75,1.67.05,1.89-.03,3.79,0,5.68,0,.24-.07.3-.3.29-.75-.01-1.5-.01-2.25,0-.18,0-.24-.04-.24-.23,0-1.46,0-2.91,0-4.37,0-1.06-.97-1.72-1.94-1.3-.51.22-.72.62-.72,1.17,0,1.42,0,2.83,0,4.25q0,.48-.5.48c-.66,0-1.32,0-1.98,0-.21,0-.26-.06-.26-.27,0-1.3,0-2.59,0-3.89Z"/>
    <path class="cls-2" d="M31.43,12.27c-2.62.11-4.96-1.63-4.97-4.28,0-1.83.93-3.14,2.58-3.91,1.9-.89,4.18-.4,5.52,1.14,1.98,2.28,1,5.76-1.92,6.79-.46.16-.94.26-1.21.26ZM30.94,5.91c-1.05,0-1.9.91-1.89,2.02,0,1.12.86,2.02,1.9,2.02,1.04,0,1.91-.93,1.9-2.03,0-1.11-.86-2.01-1.91-2.01Z"/>
    <path class="cls-2" d="M36.91,8.19c.07-1.62.82-2.85,2.23-3.67,1.79-1.05,4.19-.74,5.64.7,1.87,1.86,1.67,4.75-.43,6.36-2.46,1.88-6.16.87-7.19-1.97-.09-.25-.16-.51-.2-.78-.03-.21-.04-.42-.05-.64ZM43.29,8.19c0-1.12-.83-2.03-1.87-2.04-1.04,0-1.91.9-1.91,2.01,0,1.13.83,2.03,1.88,2.03,1.06,0,1.91-.88,1.91-2Z"/>
    <path class="cls-1" d="M28.15,21.47c0,.86,0,1.72,0,2.57,0,.27-.08.35-.36.35-.71-.02-1.42-.01-2.13,0-.18,0-.27-.03-.26-.24,0-.19.11-.46-.08-.56-.22-.11-.34.18-.49.31-1.43,1.21-3.2.76-4.05-.06-.76-.74-.83-1.67-.58-2.64.24-.94.94-1.45,1.85-1.61,1.06-.18,2.13-.2,3.16.18.23.08.26-.03.26-.21.02-.88-.62-1.5-1.62-1.55-.77-.04-1.51.1-2.22.4-.12.05-.22.12-.29-.08-.17-.52-.35-1.04-.53-1.55-.04-.12-.05-.21.09-.26,1.63-.55,3.28-.86,4.99-.35.9.27,1.66.74,2.05,1.65.16.38.19.77.19,1.17,0,.83,0,1.65,0,2.48ZM24.15,20.72c-.46-.03-.95.12-1.3.58-.42.55-.18,1.33.48,1.56,1.13.39,2.26-.49,2.15-1.68-.02-.17-.08-.27-.26-.32-.32-.08-.64-.13-1.07-.14Z"/>
    <path class="cls-2" d="M44.35,20.91c-.83,0-1.66,0-2.49,0-.37,0-.46.14-.32.49.38.94,1.53,1.39,2.57,1,.37-.14.7-.34.97-.62.13-.13.2-.13.34-.01.36.32.72.64,1.11.91.24.18.18.29.02.46-.52.55-1.16.91-1.89,1.1-1.41.38-2.8.35-4.07-.46-1.3-.83-1.88-2.05-1.82-3.58.08-1.79.76-3.24,2.47-4.02,1.14-.52,2.34-.5,3.5-.07,1.28.47,1.89,1.53,2.24,2.77.16.58.16,1.18.16,1.78,0,.21-.07.25-.26.25-.85,0-1.7,0-2.55,0ZM42.99,19.56c.46,0,.92,0,1.37,0,.15,0,.21-.03.21-.19-.03-.93-.76-1.6-1.74-1.59-.83,0-1.35.59-1.39,1.54,0,.19.04.26.24.25.44-.02.88,0,1.31,0Z"/>
    <path class="cls-2" d="M58.53,24.4c-1.27-.03-2.44-.3-3.48-1.01-.2-.13-.23-.24-.09-.45.25-.37.47-.77.67-1.16.11-.2.19-.2.38-.09.59.37,1.21.7,1.91.82.38.07.77.08,1.16-.01.25-.06.4-.22.43-.48.03-.27-.12-.44-.36-.52-.62-.22-1.25-.41-1.87-.63-.26-.09-.52-.2-.78-.31-.88-.38-1.34-1.06-1.39-2.02-.04-.91.3-1.63,1.05-2.15.66-.46,1.42-.62,2.21-.64,1.08-.02,2.12.15,3.08.69.24.14.33.25.16.52-.23.36-.43.74-.61,1.13-.11.24-.21.28-.46.15-.65-.37-1.32-.66-2.1-.6-.17.01-.34.03-.5.09-.38.14-.47.52-.19.81.18.18.41.28.64.36.51.19,1.04.27,1.56.41.31.08.61.19.89.35.69.39,1.04.99,1.06,1.78,0,.36,0,.72-.09,1.07-.25,1.11-1.06,1.58-2.09,1.78-.41.08-.83.09-1.22.12Z"/>
    <path class="cls-1" d="M48.62,20.28c0-1.29,0-2.57,0-3.86,0-.22.04-.29.28-.29.74.02,1.48.01,2.22,0,.18,0,.24.04.24.23-.01.41,0,.82,0,1.23,0,.08-.02.19.1.22.11.02.13-.08.16-.15.16-.3.36-.58.55-.85.43-.59,1.04-.76,1.72-.81.14,0,.18.04.17.16,0,.86,0,1.72,0,2.57,0,.14-.06.16-.18.17-.28.02-.56.05-.82.14-1,.31-1.63,1.14-1.68,2.23-.05.95-.04,1.89,0,2.84,0,.22-.03.31-.28.3-.72-.02-1.44-.02-2.16,0-.24,0-.32-.05-.32-.31.01-1.28,0-2.55,0-3.83Z"/>
  </g>
</svg>