<?xml version="1.0" encoding="UTF-8"?>
<svg id="Layer_1" data-name="Layer 1" xmlns="http://www.w3.org/2000/svg" version="1.1" viewBox="0 0 80 80">
  <defs>
    <style>
      .cls-1 {
        fill: #e1242b;
        stroke: #fff;
        stroke-linecap: round;
        stroke-linejoin: round;
        stroke-width: 3px;
      }

      .cls-2 {
        fill: #fff;
        stroke-width: 0px;
      }
    </style>
  </defs>
  <path class="cls-2" d="M39.4,61.2c-1.2-1.8-2.5-3.7-3.7-5.5-4.4-6.6-8.8-13.2-13.2-19.7-.3-.5-.5-1.3-1.4-1.1-1,.2-.7,1.1-.7,1.8,0,12.1,0,24.1,0,36.2,0,1.5-.4,1.9-1.9,1.9-4.6,0-9.2,0-13.8,0-1.2,0-1.5-.3-1.5-1.5,0-22.1,0-44.2,0-66.3,0-1.3.4-1.6,1.6-1.6,5.4,0,10.9,0,16.3,0,1.1,0,1.7.4,2.3,1.3,4.7,8,9.4,15.9,14.1,23.9,1.5,2.6,2.3,2.6,3.9,0,5-7.9,10-15.7,14.9-23.6.7-1.2,1.5-1.6,2.9-1.6,5.2,0,10.4,0,15.5,0,1.2,0,1.8.2,1.8,1.6,0,22,0,44.1,0,66.1,0,1.4-.5,1.7-1.8,1.6-4.9,0-9.7,0-14.6,0-1.5,0-1.8-.4-1.8-1.8,0-12.1,0-24.3,0-36.4s0-.9,0-1.3c0-.6.2-1.4-.5-1.7-.9-.3-1.1.6-1.5,1.2-5.3,8.3-10.6,16.7-15.9,25-.3.5-.5,1.2-1.3,1.5h0Z"/>
  <path class="cls-1" d="M39.4,61.2c-1.2-1.8-2.5-3.7-3.7-5.5-4.4-6.6-8.8-13.2-13.2-19.7-.3-.5-.5-1.3-1.4-1.1-1,.2-.7,1.1-.7,1.8,0,12.1,0,24.1,0,36.2,0,1.5-.4,1.9-1.9,1.9-4.6,0-9.2,0-13.8,0-1.2,0-1.5-.3-1.5-1.5,0-22.1,0-44.2,0-66.3,0-1.3.4-1.6,1.6-1.6,5.4,0,10.9,0,16.3,0,1.1,0,1.7.4,2.3,1.3,4.7,8,9.4,15.9,14.1,23.9,1.5,2.6,2.3,2.6,3.9,0,5-7.9,10-15.7,14.9-23.6.7-1.2,1.5-1.6,2.9-1.6,5.2,0,10.4,0,15.5,0,1.2,0,1.8.2,1.8,1.6,0,22,0,44.1,0,66.1,0,1.4-.5,1.7-1.8,1.6-4.9,0-9.7,0-14.6,0-1.5,0-1.8-.4-1.8-1.8,0-12.1,0-24.3,0-36.4s0-.9,0-1.3c0-.6.2-1.4-.5-1.7-.9-.3-1.1.6-1.5,1.2-5.3,8.3-16.4,26.2-17.1,26.6h0Z"/>
</svg>